<svg xmlns="http://www.w3.org/2000/svg" viewBox="0 0 269.36 41.03"><defs><style>.a{fill:#696767;}.b{fill:#0076bf;}</style></defs><title>hpi</title><path class="a" d="M56.1,9.13h3.35v7.93h9.1V9.13h3.35V28.21H68.56v-8h-9.1v8H56.1Z" transform="translate(-0.89 -0.42)"/><path class="a" d="M73.47,21.1V21A7.68,7.68,0,0,1,88.81,21V21a7.53,7.53,0,0,1-7.71,7.5A7.44,7.44,0,0,1,73.47,21.1Zm12,0V21a4.45,4.45,0,0,0-4.42-4.63A4.32,4.32,0,0,0,76.77,21V21a4.44,4.44,0,0,0,4.39,4.61A4.32,4.32,0,0,0,85.51,21.1Z" transform="translate(-0.89 -0.42)"/><path class="a" d="M90.23,23V13.82h3.3V22c0,2.23,1.12,3.49,3.08,3.49s3.24-1.31,3.24-3.54V13.82h3.33V28.21H99.85V26a5.18,5.18,0,0,1-4.5,2.54C92.11,28.51,90.23,26.33,90.23,23Z" transform="translate(-0.89 -0.42)"/><path class="a" d="M104.9,26.33l1.47-2.23a8.14,8.14,0,0,0,4.71,1.77c1.42,0,2.24-.6,2.24-1.55v-.06c0-1.12-1.53-1.5-3.22-2-2.13-.6-4.5-1.47-4.5-4.22V18c0-2.73,2.26-4.39,5.13-4.39A10,10,0,0,1,116,15.21l-1.31,2.34a8.35,8.35,0,0,0-4.06-1.36c-1.28,0-2,.6-2,1.42v.05c0,1.06,1.55,1.5,3.24,2,2.1.66,4.47,1.61,4.47,4.2V24c0,3-2.34,4.52-5.34,4.52A10.11,10.11,0,0,1,104.9,26.33Z" transform="translate(-0.89 -0.42)"/><path class="a" d="M117.57,21.07V21c0-4.12,2.92-7.5,7-7.5,4.58,0,6.9,3.6,6.9,7.74,0,.3,0,.6-.05.93H120.87A4,4,0,0,0,125,25.84a5.22,5.22,0,0,0,3.9-1.72l1.94,1.72a7.28,7.28,0,0,1-5.89,2.7A7.18,7.18,0,0,1,117.57,21.07ZM128.23,20c-.22-2.13-1.47-3.79-3.65-3.79-2,0-3.43,1.55-3.73,3.79Z" transform="translate(-0.89 -0.42)"/><path class="a" d="M137.79,9.13h7.52c4.47,0,7.25,2.53,7.25,6.38v.05c0,4.28-3.43,6.51-7.63,6.51h-3.79v6.13h-3.35ZM145,19.05c2.54,0,4.12-1.42,4.12-3.41v-.05c0-2.24-1.61-3.41-4.12-3.41h-3.9v6.87Z" transform="translate(-0.89 -0.42)"/><path class="a" d="M154.39,13.82h3.3v3.24a5.1,5.1,0,0,1,5.1-3.52V17h-.19c-2.89,0-4.91,1.88-4.91,5.7v5.48h-3.3Z" transform="translate(-0.89 -0.42)"/><path class="a" d="M165,8.48h3.54v3.13H165Zm.14,5.34h3.3V28.21h-3.3Z" transform="translate(-0.89 -0.42)"/><path class="a" d="M170.34,21.1V21a7.43,7.43,0,0,1,7.5-7.52A7.27,7.27,0,0,1,183.59,16l-2.07,2.21a4.83,4.83,0,0,0-3.71-1.8A4.34,4.34,0,0,0,173.64,21V21a4.35,4.35,0,0,0,4.31,4.61,5,5,0,0,0,3.73-1.77l2,2a7.55,7.55,0,0,1-13.33-4.74Z" transform="translate(-0.89 -0.42)"/><path class="a" d="M184.13,21.07V21c0-4.12,2.92-7.5,7-7.5,4.58,0,6.89,3.6,6.89,7.74,0,.3,0,.6-.05.93H187.43a4,4,0,0,0,4.14,3.65,5.23,5.23,0,0,0,3.9-1.72l1.94,1.72a7.28,7.28,0,0,1-5.89,2.7A7.18,7.18,0,0,1,184.13,21.07ZM194.79,20c-.22-2.13-1.47-3.79-3.65-3.79-2,0-3.43,1.55-3.73,3.79Z" transform="translate(-0.89 -0.42)"/><path class="b" d="M205.23,9.13h3.35V28.21h-3.35Z" transform="translate(-0.89 -0.42)"/><path class="b" d="M211.53,13.82h3.3V16a5.22,5.22,0,0,1,4.5-2.51c3.24,0,5.12,2.18,5.12,5.51v9.19h-3.3V20c0-2.24-1.12-3.52-3.08-3.52s-3.24,1.33-3.24,3.57v8.12h-3.3Z" transform="translate(-0.89 -0.42)"/><path class="b" d="M225.92,21V21c0-4.77,3.24-7.47,6.68-7.47a5.89,5.89,0,0,1,4.91,2.54V8.31h3.3v19.9h-3.3v-2.4a5.76,5.76,0,0,1-4.91,2.7C229.22,28.51,225.92,25.81,225.92,21Zm11.64,0V21a4.32,4.32,0,0,0-4.17-4.61c-2.26,0-4.14,1.74-4.14,4.61V21a4.28,4.28,0,0,0,4.14,4.61A4.34,4.34,0,0,0,237.56,21Z" transform="translate(-0.89 -0.42)"/><path class="b" d="M242.25,21.07V21c0-4.12,2.92-7.5,7-7.5,4.58,0,6.9,3.6,6.9,7.74,0,.3,0,.6-.05.93H245.54a4,4,0,0,0,4.14,3.65,5.23,5.23,0,0,0,3.9-1.72l1.94,1.72a7.28,7.28,0,0,1-5.89,2.7A7.18,7.18,0,0,1,242.25,21.07ZM252.9,20c-.22-2.13-1.47-3.79-3.65-3.79-2,0-3.43,1.55-3.73,3.79Z" transform="translate(-0.89 -0.42)"/><path class="b" d="M263.15,18.64l3.33-4.82H270l-5.07,7,5.29,7.36h-3.6l-3.54-5.12-3.52,5.12H256l5.26-7.33-5.07-7.06h3.6Z" transform="translate(-0.89 -0.42)"/><path class="b" d="M34.32,37.13h-.92v-.31h2.22v.31h-.93V39.6h-.37Z" transform="translate(-0.89 -0.42)"/><path class="b" d="M35.93,36.82h.51l.88,2.33.88-2.33h.51V39.6h-.35V37.29h0l-.87,2.31h-.32l-.87-2.31h0V39.6h-.35Z" transform="translate(-0.89 -0.42)"/><path class="b" d="M20.52.42H20.4A19.51,19.51,0,0,0,.89,19.81h0v.12A19.51,19.51,0,0,0,20.3,39.44h.1A19.51,19.51,0,0,0,39.91,20v-.1A19.51,19.51,0,0,0,20.52.42M10.39,18.83l3.24-1.56V29.35h2.79l0-13.42,4.33-2.09L25,16V29.35h2.79V17.44l1.36.67c.54.26,1,.48,1.37.64l.5.2.25.08a1.58,1.58,0,0,0,.45.07h0a1.67,1.67,0,0,0,.83-.23,5.11,5.11,0,0,0,.75-.53c.87-.71,2.11-1.91,3.17-3l0,0a16.7,16.7,0,0,1,.64,4.57V20A16.71,16.71,0,0,1,20.4,36.64h-.11A16.71,16.71,0,0,1,3.69,19.93v-.09A16.71,16.71,0,0,1,20.4,3.22h.09A16.71,16.71,0,0,1,35.37,12.5c-.71.72-1.7,1.7-2.56,2.52-.48.45-.92.85-1.24,1.11l0,0L31.27,16c-1.32-.6-3.81-1.86-5.95-3s-3.93-2-3.94-2l-.68-.33L9.17,16.32ZM42.76,7.94a1.77,1.77,0,1,0,1.77,1.77,1.77,1.77,0,0,0-1.77-1.77" transform="translate(-0.89 -0.42)"/><path class="a" d="M58.08,36.12h-2v-1h5.06v1h-2v5.22h-1.1Z" transform="translate(-0.89 -0.42)"/><path class="a" d="M62.5,35.11h4.62v1H63.6v1.62h3.13v1H63.6v1.67h3.57v1H62.5Z" transform="translate(-0.89 -0.42)"/><path class="a" d="M68.65,35.11h2.78a2.52,2.52,0,0,1,1.8.62,1.89,1.89,0,0,1,.52,1.34v0A1.87,1.87,0,0,1,72.27,39L74,41.34h-1.3l-1.53-2.17H69.75v2.17h-1.1Zm2.7,3.09c.78,0,1.28-.41,1.28-1v0c0-.67-.48-1-1.29-1H69.75V38.2Z" transform="translate(-0.89 -0.42)"/><path class="a" d="M77.48,35.06h1l2.74,6.28H80.08l-.63-1.51H76.5l-.64,1.51H74.74ZM79,38.87,78,36.37,76.9,38.87Z" transform="translate(-0.89 -0.42)"/><path class="a" d="M82.49,35.11h1l3.34,4.31V35.11h1.08v6.24H87l-3.44-4.44v4.44H82.49Z" transform="translate(-0.89 -0.42)"/><path class="a" d="M89.71,35.11h4.62v1H90.8v1.62h3.13v1H90.8v1.67h3.57v1H89.71Z" transform="translate(-0.89 -0.42)"/><path class="a" d="M97.39,36.12h-2v-1h5.06v1h-2v5.22H97.39Z" transform="translate(-0.89 -0.42)"/><path class="a" d="M106.87,35.06h1l2.74,6.28h-1.16l-.63-1.51h-2.95l-.64,1.51h-1.12Zm1.57,3.8-1.08-2.49-1.07,2.49Z" transform="translate(-0.89 -0.42)"/><path class="a" d="M111.88,35.11h1l3.34,4.31V35.11h1.08v6.24h-.92L113,36.91v4.44h-1.08Z" transform="translate(-0.89 -0.42)"/><path class="a" d="M119.1,35.11h2.32a3.11,3.11,0,0,1,3.31,3.1v0a3.12,3.12,0,0,1-3.31,3.12H119.1Zm1.1,1v4.24h1.23a2,2,0,0,0,2.17-2.1v0a2,2,0,0,0-2.17-2.12Z" transform="translate(-0.89 -0.42)"/><path class="a" d="M129.09,35.11h1l3.34,4.31V35.11h1.08v6.24h-.92l-3.44-4.44v4.44h-1.08Z" transform="translate(-0.89 -0.42)"/><path class="a" d="M138.52,35.06h1l2.74,6.28h-1.16l-.63-1.51h-2.95l-.64,1.51h-1.12Zm1.57,3.8L139,36.37l-1.07,2.49Z" transform="translate(-0.89 -0.42)"/><path class="a" d="M144.26,36.12h-2v-1h5.06v1h-2v5.22h-1.1Z" transform="translate(-0.89 -0.42)"/><path class="a" d="M148.74,35.11h1.1v6.24h-1.1Z" transform="translate(-0.89 -0.42)"/><path class="a" d="M151.41,38.24v0a3.26,3.26,0,0,1,6.52,0v0a3.26,3.26,0,0,1-6.52,0Zm5.37,0v0A2.14,2.14,0,0,0,154.66,36a2.11,2.11,0,0,0-2.1,2.2v0a2.13,2.13,0,0,0,2.12,2.21A2.1,2.1,0,0,0,156.78,38.24Z" transform="translate(-0.89 -0.42)"/><path class="a" d="M159.44,35.11h1l3.34,4.31V35.11h1.08v6.24H164l-3.44-4.44v4.44h-1.08Z" transform="translate(-0.89 -0.42)"/><path class="a" d="M168.86,35.06h1l2.74,6.28h-1.16l-.63-1.51h-2.95l-.64,1.51h-1.12Zm1.57,3.8-1.08-2.49-1.07,2.49Z" transform="translate(-0.89 -0.42)"/><path class="a" d="M173.87,35.11H175v5.24h3.28v1h-4.37Z" transform="translate(-0.89 -0.42)"/><path class="a" d="M182.33,35.11h2.8a2.25,2.25,0,0,1,1.63.55,1.4,1.4,0,0,1,.42,1v0a1.48,1.48,0,0,1-.89,1.39,1.53,1.53,0,0,1,1.24,1.51v0c0,1.11-.92,1.71-2.31,1.71h-2.89Zm3.75,1.76c0-.49-.39-.79-1.1-.79h-1.58v1.66h1.5c.7,0,1.18-.28,1.18-.85Zm-.94,1.79h-1.74v1.71h1.82c.75,0,1.2-.29,1.2-.86v0C186.43,39,186,38.66,185.14,38.66Z" transform="translate(-0.89 -0.42)"/><path class="a" d="M191.15,35.06h1l2.74,6.28h-1.16l-.63-1.51h-2.95l-.64,1.51h-1.12Zm1.57,3.8-1.08-2.49-1.07,2.49Z" transform="translate(-0.89 -0.42)"/><path class="a" d="M196.16,35.11h1l3.34,4.31V35.11h1.08v6.24h-.92l-3.44-4.44v4.44h-1.08Z" transform="translate(-0.89 -0.42)"/><path class="a" d="M203.38,35.11h1.1v3.14l3-3.14h1.35l-2.6,2.68,2.72,3.55h-1.34l-2.13-2.81-1,1v1.81h-1.1Z" transform="translate(-0.89 -0.42)"/><path class="a" d="M212.43,38.24v0a3.26,3.26,0,0,1,6.52,0v0a3.26,3.26,0,0,1-6.52,0Zm5.37,0v0A2.14,2.14,0,0,0,215.68,36a2.11,2.11,0,0,0-2.1,2.2v0a2.13,2.13,0,0,0,2.12,2.21A2.1,2.1,0,0,0,217.8,38.24Z" transform="translate(-0.89 -0.42)"/><path class="a" d="M220.45,35.11h4.64v1h-3.54v1.7h3.15v1h-3.15v2.54h-1.1Z" transform="translate(-0.89 -0.42)"/><path class="a" d="M228.88,38.24v0A3.16,3.16,0,0,1,232.09,35a3.25,3.25,0,0,1,2.44,1l-.7.81a2.48,2.48,0,0,0-1.75-.77,2.1,2.1,0,0,0-2.06,2.2v0a2.1,2.1,0,0,0,2.06,2.21,2.43,2.43,0,0,0,1.79-.8l.7.71a3.22,3.22,0,0,1-2.53,1.1A3.14,3.14,0,0,1,228.88,38.24Z" transform="translate(-0.89 -0.42)"/><path class="a" d="M238.12,35.06h1l2.74,6.28h-1.16l-.63-1.51h-2.95l-.64,1.51h-1.12Zm1.57,3.8-1.08-2.49-1.07,2.49Z" transform="translate(-0.89 -0.42)"/><path class="a" d="M243.13,35.11h1l3.34,4.31V35.11h1.08v6.24h-.92l-3.44-4.44v4.44h-1.08Z" transform="translate(-0.89 -0.42)"/><path class="a" d="M252.56,35.06h1l2.74,6.28h-1.16l-.63-1.51h-2.95l-.64,1.51h-1.12Zm1.57,3.8L253,36.37,252,38.87Z" transform="translate(-0.89 -0.42)"/><path class="a" d="M257.56,35.11h2.33a3.11,3.11,0,0,1,3.31,3.1v0a3.12,3.12,0,0,1-3.31,3.12h-2.33Zm1.1,1v4.24h1.23a2,2,0,0,0,2.17-2.1v0a2,2,0,0,0-2.17-2.12Z" transform="translate(-0.89 -0.42)"/><path class="a" d="M266.48,35.06h1l2.74,6.28h-1.16l-.63-1.51H265.5l-.64,1.51h-1.12Zm1.57,3.8L267,36.37l-1.07,2.49Z" transform="translate(-0.89 -0.42)"/></svg>